<svg xmlns="http://www.w3.org/2000/svg" width="888" height="200" viewBox="0 0 888 200">
  <g fill="#2E3440">
    <path d="M466.56 123.346l-43.392-55.545V52.39l48.091 62.171h25.844V27.016h-43.465l-9.396-9.398h62.257v105.728z"/>
    <path d="M421.439 17.618l43.394 55.541v15.41l-48.092-62.168h-25.843v87.544h43.463l9.401 9.401H381.5V17.618z"/>
  </g>
  <path fill="none" d="M239.433 141.346h409.133v41.037H239.433z"/>
  <path fill="#88C0D0" d="M241.863 141.347h1.35l21.959 31.004h.09v-31.004h.9v32.129h-1.35l-21.959-31.004h-.09v31.004h-.9v-32.129zm38.429 8.46c6.75 0 10.395 5.805 10.395 12.104 0 6.345-3.645 12.104-10.44 12.104-6.75 0-10.395-5.76-10.395-12.104.001-6.3 3.646-12.104 10.44-12.104zm0 23.308c6.165 0 9.495-5.354 9.495-11.204 0-5.76-3.33-11.205-9.495-11.205-6.255 0-9.54 5.445-9.54 11.205.001 5.85 3.286 11.204 9.54 11.204zm15.031.361h-.9v-23.129h.9v5.715h.09c.855-3.42 3.555-6.435 9.09-6.255v.899c-6.345-.314-9.18 4.636-9.18 9.675v13.095zm28.753-32.129h.9v32.129h-.9v-6.479h-.09c-1.17 4.05-4.545 7.02-9.27 7.02-6.12 0-9.855-5.085-9.855-12.06 0-6.479 3.465-12.149 9.855-12.149 4.905 0 8.189 2.835 9.27 7.02h.09v-15.481zm-9.359 9.359c-6.345 0-8.955 5.896-8.955 11.25 0 5.939 2.97 11.159 8.955 11.159 5.939 0 9.359-5.175 9.359-11.159 0-7.154-3.735-11.25-9.359-11.25z"/>
  <path fill="#2E3440" d="M356.476 141.347h3.06v23.174c0 6.525-2.43 9.63-9.36 9.63-7.379 0-9-5.399-8.955-10.979h3.06c.09 2.745-.18 8.37 6.165 8.37 4.77 0 6.03-2.431 6.03-8.325v-21.87zm10.665 21.284c.045 4.14 2.205 9.135 7.65 9.135 4.14 0 6.39-2.43 7.29-5.939h2.834c-1.215 5.265-4.274 8.324-10.124 8.324-7.38 0-10.485-5.67-10.485-12.284 0-6.12 3.105-12.284 10.485-12.284 7.47 0 10.439 6.524 10.215 13.049h-17.865zm15.03-2.385c-.136-4.274-2.79-8.279-7.38-8.279-4.635 0-7.2 4.05-7.65 8.279h15.03zm11.159-9.989h4.726v2.385h-4.726v15.659c0 1.845.271 2.925 2.295 3.06.811 0 1.62-.045 2.431-.135v2.43c-.855 0-1.665.09-2.521.09-3.779 0-5.084-1.26-5.039-5.22v-15.884h-4.05v-2.385h4.05v-6.975h2.834v6.975zm9.36-8.91h13.589c5.4 0 10.305 1.89 10.305 7.875 0 3.375-2.25 6.479-5.58 7.199v.091c4.141.539 6.795 3.645 6.795 7.829 0 3.06-1.08 9.135-11.52 9.135H402.69v-32.129zm3.06 14.085h10.529c4.905 0 7.245-2.431 7.245-5.445 0-4.005-2.476-6.029-7.245-6.029H405.75v11.474zm0 15.433h10.529c4.545.046 8.46-1.484 8.46-6.614 0-4.095-3.104-6.21-8.46-6.21H405.75v12.824zm26.415-20.608h2.609v5.444h.09c1.44-3.734 4.59-5.939 8.775-5.76v2.835c-5.13-.27-8.64 3.51-8.64 8.325v12.374h-2.835v-23.218zm13.904 7.109c.271-5.444 4.095-7.784 9.405-7.784 4.095 0 8.549 1.26 8.549 7.469v12.33c0 1.08.54 1.71 1.665 1.71.315 0 .675-.09.9-.18v2.385c-.63.135-1.08.18-1.845.18-2.88 0-3.33-1.62-3.33-4.05h-.09c-1.98 3.015-4.005 4.725-8.46 4.725-4.274 0-7.784-2.115-7.784-6.795 0-6.524 6.345-6.749 12.464-7.47 2.34-.27 3.645-.585 3.645-3.149 0-3.825-2.744-4.77-6.074-4.77-3.51 0-6.12 1.619-6.21 5.399h-2.835zm15.119 3.42h-.09c-.359.675-1.62.9-2.385 1.035-4.814.854-10.8.81-10.8 5.354 0 2.835 2.521 4.59 5.175 4.59 4.32 0 8.146-2.745 8.1-7.29v-3.689zm8.551-19.439h2.835v4.545h-2.835v-4.545zm0 8.91h2.835v23.219h-2.835v-23.219zm8.236 0h2.835v4.005h.09c1.034-2.79 4.14-4.68 7.425-4.68 6.524 0 8.504 3.419 8.504 8.954v14.939h-2.835v-14.489c0-4.005-1.305-7.02-5.895-7.02-4.5 0-7.199 3.42-7.289 7.964v13.545h-2.835v-23.218zm38.113 6.794c-.135-3.51-2.835-5.084-6.075-5.084-2.52 0-5.489.989-5.489 4.005 0 2.52 2.88 3.42 4.814 3.914l3.78.855c3.239.495 6.614 2.385 6.614 6.435 0 5.04-4.995 6.975-9.314 6.975-5.399 0-9.09-2.52-9.54-8.189h2.835c.226 3.825 3.061 5.805 6.84 5.805 2.655 0 6.345-1.17 6.345-4.41 0-2.699-2.52-3.6-5.085-4.229l-3.645-.81c-3.689-.99-6.479-2.25-6.479-6.21 0-4.725 4.635-6.524 8.729-6.524 4.635 0 8.324 2.43 8.505 7.469h-2.835zm20.79-15.704h22.184v2.61h-19.124v11.609h17.909v2.609h-17.909v12.689h19.35v2.61h-22.409v-32.127zm46.573 32.129h-2.609v-4.41h-.091c-1.215 3.016-4.904 5.085-8.279 5.085-7.064 0-10.439-5.715-10.439-12.284 0-6.57 3.375-12.284 10.439-12.284 3.465 0 6.84 1.755 8.055 5.084h.09v-13.319h2.835v32.128zm-10.979-1.71c6.03 0 8.145-5.085 8.145-9.899 0-4.815-2.114-9.899-8.145-9.899-5.399 0-7.604 5.084-7.604 9.899-.001 4.814 2.204 9.899 7.604 9.899zm16.424-30.419h2.835v4.545h-2.835v-4.545zm0 8.91h2.835v23.219h-2.835v-23.219zm12.78 0h4.726v2.385h-4.726v15.659c0 1.845.271 2.925 2.295 3.06.811 0 1.62-.045 2.431-.135v2.43c-.855 0-1.665.09-2.521.09-3.779 0-5.084-1.26-5.039-5.22v-15.884h-4.05v-2.385h4.05v-6.975h2.834v6.975zm29.609 11.609c0 6.659-3.87 12.284-10.979 12.284-7.11 0-10.979-5.625-10.979-12.284 0-6.66 3.869-12.284 10.979-12.284 7.109 0 10.979 5.624 10.979 12.284zm-19.124 0c0 4.949 2.699 9.899 8.145 9.899 5.444 0 8.145-4.95 8.145-9.899 0-4.95-2.7-9.899-8.145-9.899-5.446 0-8.145 4.949-8.145 9.899zm23.355-11.609h2.609v5.444h.09c1.44-3.734 4.59-5.939 8.775-5.76v2.835c-5.13-.27-8.64 3.51-8.64 8.325v12.374h-2.835v-23.218z"/>
</svg>
